<?xml version="1.0" encoding="iso-8859-1"?>
<!-- Generator: Adobe Illustrator 19.0.0, SVG Export Plug-In . SVG Version: 6.00 Build 0)  -->
<svg xmlns="http://www.w3.org/2000/svg" xmlns:xlink="http://www.w3.org/1999/xlink" version="1.1" id="Capa_1" x="0px" y="0px" viewBox="0 0 480 480" style="enable-background:new 0 0 480 480;" xml:space="preserve" width="512px" height="512px">
<g>
	<g>
		<path d="M151.872,392c-0.607-13.301-8.376-25.228-20.296-31.16c-2.251-1.125-4.901-1.125-7.152,0    c-11.92,5.932-19.689,17.859-20.296,31.16H104v48c0,4.418,3.582,8,8,8h32c4.418,0,8-3.582,8-8v-48H151.872z M128,377.416    c4.509,3.568,7.329,8.852,7.784,14.584h-15.568C120.671,386.268,123.491,380.984,128,377.416z M136,432h-16v-24h16V432z" fill="#FFFFFF"/>
	</g>
</g>
<g>
	<g>
		<path d="M416,346.064l12.952,5.336l6.096-14.8L304,282.64V264h16v-16h-16V136c0-4.418-3.582-8-8-8h-18.584L248,54.456V32h16V16    h-16V0h-16v16h-16v16h16v22.456L202.584,128H184c-4.418,0-8,3.582-8,8v112h-16v16h16v18.64L44.952,336.6l6.096,14.8L64,346.064    V376H48v16h16v16H48v16h16v40H48v16h384v-16h-16v-40h16v-16h-16v-16h16v-16h-16V346.064z M176,464H80V341.272l96-41.136V464z     M240,77.536L260.184,128h-40.368L240,77.536z M192,144h37.368l-22.4,25.6L192,186.704V144z M248,464h-16v-24h16V464z M248,424    h-16v-6.112c-0.024-6.432,2.93-12.514,8-16.472c5.07,3.958,8.024,10.04,8,16.472V424z M288,464h-24v-46.112    c0.047-14.008-7.874-26.825-20.424-33.048c-2.251-1.125-4.901-1.125-7.152,0c-12.55,6.223-20.471,19.04-20.424,33.048V464h-24V264    h96V464z M288,248h-96v-36.992l48-54.856l48,54.856V248z M288,186.704L273.048,169.6l-22.4-25.6H288V186.704z M400,464h-96    V300.136l96,41.136V464z" fill="#FFFFFF"/>
	</g>
</g>
<g>
	<g>
		<path d="M243.576,280.8c-2.251-1.125-4.901-1.125-7.152,0c-12.563,6.23-20.486,19.065-20.424,33.088V360c0,4.418,3.582,8,8,8h32    c4.418,0,8-3.582,8-8v-46.112C264.062,299.865,256.139,287.03,243.576,280.8z M240,297.416L240,297.416    c4.509,3.568,7.329,8.852,7.784,14.584h-15.568C232.671,306.268,235.491,300.984,240,297.416z M248,352h-16v-24h16V352z" fill="#FFFFFF"/>
	</g>
</g>
<g>
	<g>
		<path d="M240,184c-13.255,0-24,10.745-24,24s10.745,24,24,24s24-10.745,24-24S253.255,184,240,184z M240,216c-4.418,0-8-3.582-8-8    s3.582-8,8-8s8,3.582,8,8S244.418,216,240,216z" fill="#FFFFFF"/>
	</g>
</g>
<g>
	<g>
		<path d="M355.576,360.84c-2.251-1.125-4.901-1.125-7.152,0c-12.55,6.223-20.471,19.04-20.424,33.048V440c0,4.418,3.582,8,8,8h32    c4.418,0,8-3.582,8-8v-46.112C376.047,379.88,368.126,367.063,355.576,360.84z M352,377.416c4.509,3.568,7.329,8.852,7.784,14.584    h-15.568C344.671,386.268,347.491,380.984,352,377.416z M360,432h-16v-24h16V432z" fill="#FFFFFF"/>
	</g>
</g>
<g>
</g>
<g>
</g>
<g>
</g>
<g>
</g>
<g>
</g>
<g>
</g>
<g>
</g>
<g>
</g>
<g>
</g>
<g>
</g>
<g>
</g>
<g>
</g>
<g>
</g>
<g>
</g>
<g>
</g>
</svg>
