<?xml version="1.0" encoding="iso-8859-1"?>
<!-- Generator: Adobe Illustrator 19.0.0, SVG Export Plug-In . SVG Version: 6.00 Build 0)  -->
<svg xmlns="http://www.w3.org/2000/svg" xmlns:xlink="http://www.w3.org/1999/xlink" version="1.1" id="Capa_1" x="0px" y="0px" viewBox="0 0 480.12 480.12" style="enable-background:new 0 0 480.12 480.12;" xml:space="preserve" width="512px" height="512px">
<g>
	<g>
		<path d="M450.311,0c-8.864,0-17.2,3.904-22.896,10.72l-33.464,40.16c-2.648,3.176-2.432,7.848,0.496,10.776l24,24    c1.552,1.552,3.6,2.344,5.656,2.344c1.816,0,3.632-0.616,5.12-1.856l40.16-33.464c6.816-5.672,10.72-14.016,10.72-22.888    C480.095,13.368,466.727,0,450.311,0z M459.135,40.384l-34.536,28.784l-13.672-13.664l28.776-34.536    c2.632-3.16,6.496-4.968,10.608-4.968c7.6,0,13.784,6.192,13.792,13.792C464.103,33.896,462.287,37.76,459.135,40.384z" fill="#FFFFFF"/>
	</g>
</g>
<g>
	<g>
		<rect x="408.101" y="4.728" transform="matrix(0.7071 -0.7071 0.7071 0.7071 110.5311 298.9258)" width="16" height="22.624" fill="#FFFFFF"/>
	</g>
</g>
<g>
	<g>
		<rect x="384.102" y="36.726" transform="matrix(0.7071 -0.7071 0.7071 0.7071 80.8762 291.3277)" width="16" height="22.624" fill="#FFFFFF"/>
	</g>
</g>
<g>
	<g>
		<rect x="432.103" y="76.669" transform="matrix(0.7071 -0.7071 0.7071 0.7071 66.6912 336.9685)" width="16" height="22.624" fill="#FFFFFF"/>
	</g>
</g>
<g>
	<g>
		<rect x="456.095" y="52.728" transform="matrix(0.7071 -0.7071 0.7071 0.7071 90.647 346.9213)" width="16" height="22.624" fill="#FFFFFF"/>
	</g>
</g>
<g>
	<g>
		<path d="M237.759,282.344l-40-40c-1.496-1.504-3.536-2.344-5.656-2.344c-2.128,0-4.16,0.84-5.656,2.336l-88,88    c-1.504,1.496-2.344,3.528-2.344,5.656s0.84,4.16,2.344,5.656l40,40c1.56,1.56,3.608,2.344,5.656,2.344    c2.04,0,4.088-0.784,5.656-2.344l88-87.992C240.887,290.528,240.887,285.472,237.759,282.344z M144.103,364.68l-28.688-28.688    l76.688-76.68L220.783,288L144.103,364.68z" fill="#FFFFFF"/>
	</g>
</g>
<g>
	<g>
		<path d="M189.759,362.344l-72-72c-3.128-3.128-8.184-3.128-11.312,0c-3.128,3.128-3.128,8.184,0,11.312l72,72    c1.56,1.56,3.608,2.344,5.656,2.344c2.048,0,4.096-0.784,5.656-2.344C192.887,370.528,192.887,365.472,189.759,362.344z" fill="#FFFFFF"/>
	</g>
</g>
<g>
	<g>
		<path d="M136.103,80c-13.232,0-24,10.768-24,24s10.768,24,24,24s24-10.768,24-24S149.335,80,136.103,80z M136.103,112    c-4.408,0-8-3.592-8-8s3.592-8,8-8s8,3.592,8,8S140.511,112,136.103,112z" fill="#FFFFFF"/>
	</g>
</g>
<g>
	<g>
		<path d="M237.407,2.024c-1.92-1.704-4.544-2.392-7.04-1.824l-72,16c-3.368,0.744-5.88,3.576-6.224,7.008l-8,80l15.92,1.592    l7.424-74.24l55.552-12.344l-6.896,69l15.92,1.592l8-80C240.311,6.248,239.327,3.728,237.407,2.024z" fill="#FFFFFF"/>
	</g>
</g>
<g>
	<g>
		<path d="M208.103,64c-13.232,0-24,10.768-24,24s10.768,24,24,24s24-10.768,24-24S221.335,64,208.103,64z M208.103,96    c-4.408,0-8-3.592-8-8s3.592-8,8-8s8,3.592,8,8S212.511,96,208.103,96z" fill="#FFFFFF"/>
	</g>
</g>
<g>
	<g>
		<rect x="151.299" y="40.002" transform="matrix(0.9805 -0.1963 0.1963 0.9805 -5.6855 38.6429)" width="81.58" height="15.999" fill="#FFFFFF"/>
	</g>
</g>
<g>
	<g>
		<path d="M376.103,352c-13.232,0-24,10.768-24,24s10.768,24,24,24s24-10.768,24-24S389.335,352,376.103,352z M376.103,384    c-4.416,0-8-3.584-8-8c0-4.416,3.584-8,8-8c4.416,0,8,3.584,8,8C384.103,380.416,380.519,384,376.103,384z" fill="#FFFFFF"/>
	</g>
</g>
<g>
	<g>
		<path d="M446.511,320c-6.344-0.008-12.24-3.16-15.752-8.44c-6.488-9.728-17.344-15.552-29.056-15.56h-1.6    c-4.08,0-7.496,3.064-7.952,7.112l-8,72l15.904,1.768l7.12-64.064c4.152,1.248,7.792,3.912,10.272,7.624    c6.488,9.728,17.344,15.552,29.056,15.56h1.6v-16H446.511z" fill="#FFFFFF"/>
	</g>
</g>
<g>
	<g>
		<path d="M348.815,183.2c-1.936-3.984-4.136-7.912-6.544-11.648c-1.344-2.08-3.568-3.424-6.04-3.632    c-2.456-0.216-4.888,0.728-6.568,2.544l-97.792,105.984l-28.224-28.216l106-97.824c1.808-1.68,2.752-4.104,2.536-6.568    c-0.208-2.464-1.552-4.696-3.64-6.032c-25.096-16.152-54.96-21.568-84.136-15.256c-29.16,6.32-54.12,23.616-70.28,48.712    c-2.416,3.744-4.616,7.664-6.552,11.648c-1.56,3.216-0.8,7.08,1.864,9.464c13.112,11.712,14.248,31.912,2.536,45.024    c-5.68,6.352-13.488,10.112-21.992,10.592c-8.528,0.44-16.688-2.384-23.04-8.064c-2.32-2.072-4.32-4.472-5.952-7.128    c-1.896-3.08-5.632-4.52-9.08-3.496c-67.704,19.92-106.592,91.208-86.68,158.92c16.384,55.704,67.536,91.896,122.864,91.896    c11.92,0,24.048-1.688,36.048-5.224c41.96-12.336,74.36-44.744,86.672-86.696c1.024-3.48-0.416-7.216-3.512-9.096    c-15.032-9.136-19.832-28.8-10.696-43.824c4.424-7.28,11.416-12.408,19.696-14.424c8.312-2.024,16.856-0.688,24.136,3.728    c2.712,1.648,5.16,3.696,7.28,6.08c2.384,2.68,6.264,3.416,9.48,1.872C352.607,305.584,375.751,238.592,348.815,183.2z     M295.151,315.552c-2-1.72-4.144-3.272-6.4-4.648c-10.928-6.648-23.8-8.656-36.224-5.6c-12.432,3.032-22.928,10.728-29.576,21.656    c-12.584,20.712-7.552,47.28,10.8,62.112c-11.888,34.08-39.232,60.216-74.12,70.48c-59.272,17.4-121.624-16.616-139.048-75.848    c-16.888-57.432,14.56-117.808,70.464-137.328c1.592,1.96,3.344,3.792,5.232,5.48c9.544,8.528,21.856,12.72,34.6,12.104    c12.768-0.72,24.496-6.368,33.016-15.904c16.16-18.096,16.032-45.168,0.64-63.096c0.96-1.712,1.968-3.4,3.032-5.048    c13.84-21.496,35.224-36.32,60.216-41.736c21.544-4.664,43.536-1.856,62.976,7.872l-104.08,96.072    c-1.6,1.48-2.528,3.544-2.576,5.72c-0.04,2.176,0.808,4.28,2.344,5.816l40,40c1.536,1.536,3.56,2.296,5.816,2.344    c2.176-0.048,4.24-0.976,5.72-2.576l96.032-104.08c0.144,0.28,0.28,0.56,0.416,0.848    C356.695,235.968,339.031,290.992,295.151,315.552z" fill="#FFFFFF"/>
	</g>
</g>
<g>
	<g>
		<path d="M429.767,74.344l-24-24c-3.04-3.048-7.92-3.136-11.088-0.224l-208,192c-1.6,1.48-2.528,3.544-2.576,5.72    c-0.04,2.176,0.808,4.28,2.344,5.816l40,40c1.496,1.504,3.536,2.344,5.656,2.344c0.056,0,0.104,0,0.16,0    c2.176-0.048,4.24-0.976,5.72-2.576l192-208C432.903,82.272,432.807,77.376,429.767,74.344z M231.871,276.448l-28.224-28.216    L399.879,67.088l13.128,13.128L231.871,276.448z" fill="#FFFFFF"/>
	</g>
</g>
<g>
	<g>
		<path d="M149.751,370.344l-40-40c-1.696-1.696-4.056-2.512-6.448-2.304c-2.376,0.232-4.536,1.528-5.864,3.52l-31.56,47.344    l-39.336,39.344c-2.816,2.824-3.128,7.288-0.736,10.464c7.296,9.712,15.912,18.32,25.592,25.592c1.432,1.072,3.12,1.6,4.8,1.6    c2.064,0,4.104-0.784,5.656-2.344l39.344-39.344l47.336-31.56c1.992-1.328,3.288-3.48,3.52-5.864    C152.295,374.408,151.447,372.04,149.751,370.344z M91.655,401.352c-0.432,0.288-0.848,0.624-1.216,1l-34.84,34.84    c-4.552-3.88-8.792-8.128-12.68-12.688l34.832-34.84c0.376-0.376,0.704-0.776,1-1.216l26.584-39.88l26.2,26.2L91.655,401.352z" fill="#FFFFFF"/>
	</g>
</g>
<g>
</g>
<g>
</g>
<g>
</g>
<g>
</g>
<g>
</g>
<g>
</g>
<g>
</g>
<g>
</g>
<g>
</g>
<g>
</g>
<g>
</g>
<g>
</g>
<g>
</g>
<g>
</g>
<g>
</g>
</svg>
