<?xml version="1.0" encoding="utf-8"?>
<!-- Generator: Adobe Illustrator 22.1.0, SVG Export Plug-In . SVG Version: 6.00 Build 0)  -->
<svg version="1.1" id="Capa_1" xmlns="http://www.w3.org/2000/svg" xmlns:xlink="http://www.w3.org/1999/xlink" x="0px" y="0px"
	 viewBox="0 0 512 512" style="enable-background:new 0 0 512 512;" xml:space="preserve">
<style type="text/css">
	.st0{fill:#7FACFA;}
	.st1{fill:#E3E7F2;}
	.st2{fill:#A4C2F7;}
	.st3{fill:#FFFFFF;}
	.st4{fill:#428DFF;}
</style>
<g transform="translate(0 -1)">
	<g transform="translate(1 1)">
		<path class="st0" d="M418.7,321.8c-10.9,24.9-15,52.3-11.8,79.4c1.9,17.6,5.3,35,10.3,52c2.7,8.8,6.1,17.3,10.2,25.6
			c3.8,7.9,12.8,16.7,15.3,24.7H227c0,0-12.9-52.5-42.1-65.7c-5.5,1.9-11.2,3.8-17,5.8c-18.8,6.5-38,12.1-57.4,16.6
			c-5.5,1.3-11.2,0.4-16.1-2.3c-5.4-3.4-9.4-8.6-11.3-14.7c-2.3-6.1-3.2-12.6-2.5-19c2-6.6,2.7-13.5,2-20.3
			c-2.2-8.6-10.5-10.8-17-15.4c-5.2-3.8,4.2-15.8,4.2-15.8s-10-7.4-13.7-10.7c-3.7-3.1,1.5-8.4,6.2-18.3c2-4.3,2.5-9.2,1.6-13.8
			c-1.7-9.1-15.6-12.6-22.4-17.7c-3.2-2.4-8.4-6-9-10.3c-0.9-6.1,6.3-14.6,9.8-18.9c14.9-19.2,27.6-39.9,38-61.9
			c1.4-2.3,2.2-4.9,2.4-7.6c-0.1-12.2-17.8-17.2-19.5-29.1c-0.3-3.5,0.4-7,1.8-10.2c4.9-10.5,9.1-21.2,12.6-32.3
			c2.1-10.1,4.8-20.1,8.2-29.9c7.1-19.7,18.1-37.7,32.4-52.9c20.9-22.1,51.8-33,81-38.8c25.8-5.7,52-9.5,78.4-11.5
			c0.9-0.1,1.9-0.1,2.8-0.2c54.7-2.7,97.9,15.8,140.1,48.9c23.1,17.2,40,41.4,48,69c6.2,22.8,9.1,46.4,8.6,70
			c-0.2,23.3-7,46.1-19.5,65.7C445.1,282.5,428.4,299.9,418.7,321.8z"/>
		<path class="st1" d="M392.6,321.8c-10.9,24.9-15,52.3-11.8,79.4c1.9,17.6,5.3,35,10.3,52c2.7,8.8,6.1,17.3,10.2,25.6
			c3.8,7.9,12.8,16.7,15.3,24.7H227c0,0-12.9-52.5-42.1-65.7c-5.5,1.9-11.2,3.8-17,5.8c-2.8-2.3-20.7,10.2-23.9,8.7
			c-15.8,6.3-32.9,8.2-49.7,5.6c-5.4-3.4-9.4-8.6-11.3-14.7c-2.3-6.1-3.2-12.6-2.5-19c2-6.6,2.7-13.5,2-20.3
			c-2.2-8.6-10.5-10.8-17-15.4c-5.2-3.8,4.2-15.8,4.2-15.8s-10-7.4-13.7-10.7c-3.7-3.1,1.5-8.4,6.2-18.3c2-4.3,2.5-9.2,1.6-13.8
			c-1.7-9.1-15.6-12.6-22.4-17.7c-3.2-2.4-8.4-6-9-10.3c-0.9-6.1,6.3-14.6,9.8-18.9c14.9-19.2,27.6-39.9,38-61.9
			c1.4-2.3,2.2-4.9,2.4-7.6c-0.1-12.2-17.8-17.2-19.5-29.1c-0.3-3.5,0.4-7,1.8-10.2c4.9-10.5,9.1-21.2,12.6-32.3
			c2.1-10.1,4.8-20.1,8.2-29.9c7.1-19.7,18.1-37.7,32.4-52.9c20.9-22.1,51.8-33,81-38.8c25.8-5.7,52-9.5,78.4-11.5
			c44,2.8,80.8,20.5,116.8,48.7c23.1,17.2,40,41.4,48,69c6.2,22.8,9.1,46.4,8.6,70c-0.2,23.3-7,46.1-19.5,65.7
			C419,282.5,402.3,299.9,392.6,321.8z"/>
		<path class="st2" d="M385.2,72.1c10.9,7.6,20.4,17.1,28.1,28.1l-17.2,17.2c5.7,8.9,9.8,18.8,12.1,29.1h24.3
			c2.3,13.1,2.3,26.6,0,39.7h-24.3c-2.3,10.3-6.4,20.2-12.1,29.1l17.2,17.2c-7.6,10.9-17.1,20.4-28.1,28.1L368,243.5
			c-8.9,5.7-18.8,9.8-29.1,12.1v24.3c-13.1,2.3-26.6,2.3-39.7,0v-24.3c-10.3-2.3-20.2-6.4-29.1-12.1l-17.2,17.2
			c-10.9-7.6-20.4-17.1-28.1-28.1l17.2-17.2c-5.7-8.9-9.8-18.8-12.1-29.1h-24.3c-2.3-13.1-2.3-26.6,0-39.7h24.3
			c2.3-10.3,6.4-20.2,12.1-29.1l-17.2-17.2c7.6-10.9,17.1-20.4,28.1-28.1L270,89.3c8.9-5.7,18.8-9.8,29.1-12.1V53
			c13.1-2.3,26.6-2.3,39.7,0v24.3c10.3,2.3,20.2,6.4,29.1,12.1L385.2,72.1z"/>
		<g>
			<circle class="st1" cx="161.1" cy="256" r="25.6"/>
			<circle class="st1" cx="144.1" cy="153.6" r="20.5"/>
			<circle class="st1" cx="319" cy="166.4" r="46.9"/>
		</g>
		<g>
			<path class="st0" d="M396,117.4c5.7,8.8,9.7,18.6,12,28.8l-1.2,0.3h-24.3c-2.3-10.3-6.4-20.2-12.1-29.1l17.2-17.2
				c-4.2-5.9-8.9-11.4-14.1-16.5l11.6-11.6c10.9,7.7,20.4,17.2,28.1,28.1L396,117.4z"/>
			<path class="st0" d="M434.2,166.4c0,6.7-0.6,13.3-1.7,19.9h-25.6c2.3-13.2,2.3-26.6,0-39.8l1.2-0.3c0.1,0.1,0.1,0.2,0.1,0.3h24.3
				C433.6,153.1,434.2,159.7,434.2,166.4z"/>
			<path class="st0" d="M413.3,232.6c-7.7,10.9-17.2,20.4-28.1,28.1l-11.6-11.6c5.2-5,9.9-10.5,14.1-16.5l-17.2-17.2
				c5.7-8.9,9.8-18.8,12.1-29.1h25.6c-2.3,10.3-6.4,20.2-12.1,29.1L413.3,232.6z"/>
		</g>
		<g>
			<path class="st3" d="M90.7,174.3c-1.4,3.2-2,6.7-1.8,10.2c1.6,11.9,19.4,16.9,19.5,29.1c-0.2,2.7-1,5.3-2.4,7.6
				c-10.4,21.9-23.1,42.7-38,61.9c-3.5,4.3-10.7,12.8-9.8,18.9c0.7,4.4,5.9,7.9,9,10.3c6.8,5,20.7,8.5,22.4,17.7
				c0.9,4.7,0.4,9.5-1.6,13.8c-4.7,10-9.9,15.3-6.2,18.3c3.7,3.2,13.7,10.7,13.7,10.7s-9.4,12-4.2,15.8c6.5,4.6,14.8,6.7,17,15.4
				c0.6,6.8-0.1,13.7-2,20.3c-0.7,6.4,0.2,13,2.5,19c1.9,6.1,5.9,11.3,11.3,14.7c0.3,0.1,0.4,0.3,0.7,0.3c-1.1,0.1-2.1,0.3-3.2,0.3
				c-2.5,0.6-4.8,1.2-7,1.6c-5.5,1.3-11.2,0.4-16.1-2.3c-5.4-3.4-9.4-8.6-11.3-14.7c-2.3-6.1-3.2-12.6-2.5-19c2-6.6,2.7-13.5,2-20.3
				c-2.2-8.6-10.5-10.8-17-15.4c-5.2-3.8,4.2-15.8,4.2-15.8s-10-7.4-13.7-10.7c-3.7-3.1,1.5-8.4,6.2-18.3c2-4.3,2.5-9.2,1.6-13.8
				c-1.7-9.1-15.6-12.6-22.4-17.7c-3.2-2.4-8.4-6-9-10.3c-0.9-6.1,6.3-14.6,9.8-18.9c14.9-19.2,27.6-39.9,38-61.9
				c1.4-2.3,2.2-4.9,2.4-7.6c-0.1-12.2-17.8-17.2-19.5-29.1c-0.3-3.5,0.4-7,1.8-10.2c4.9-10.5,9.1-21.2,12.6-32.3
				c2.1-10.1,4.8-20.1,8.2-29.9c7.1-19.7,18.1-37.7,32.4-52.9c20.9-22.1,51.8-33,81-38.8c25.8-5.7,52-9.5,78.4-11.5
				c0.9-0.1,1.9-0.1,2.8-0.2c7.6-0.4,15.2-0.4,22.8,0.2c-26.4,2-52.6,5.8-78.4,11.5c-29.2,5.8-60.1,16.7-81,38.8
				c-14.3,15.2-25.3,33.2-32.4,52.9c-3.4,9.8-6.1,19.7-8.2,29.9C99.9,153.1,95.6,163.9,90.7,174.3z"/>
			<path class="st3" d="M252.6,503.5H227c0,0-10.2-41.6-33.1-60c5.7-2,11.3-3.8,16.6-5.7C239.7,451,252.6,503.5,252.6,503.5z"/>
		</g>
	</g>
	<g>
		<path class="st3" d="M125.5,66.2C113.6,79,104,93.8,97.3,110c-3.4,8.1-6,16.5-7.9,25.1c-1.1,4.6-1.9,8.6-3.4,13.9
			c-1.5,4.8-3.2,9.4-5.3,14c-2.4,5.4-4.8,10.5-6.6,15.4l-16-6c2.2-5.8,4.7-11.1,6.9-16.2c1.8-3.9,3.3-7.9,4.5-12
			c1-3.6,2.1-8.6,3.2-13.1c2.1-9.5,5.1-18.7,8.8-27.7c7.5-18.1,18.2-34.7,31.5-49L125.5,66.2z"/>
		<g>
			<path class="st4" d="M82.7,126.9c2.2,0.5,4.5,0.3,6.5-0.8c1.9-1.1,3.3-2.8,4-4.8c0.6-2.1,0.4-4.3-0.5-6.2l-0.8-1.4
				c-0.3-0.5-0.7-0.9-1.2-1.2c-0.4-0.4-0.8-0.7-1.3-1c-0.5-0.3-1-0.6-1.5-0.8c-3.3-1.4-7.1-0.4-9.3,2.4c-2.3,2.8-2.8,6.6-1.2,9.8
				c0.6,1,1.3,1.8,2.2,2.5C80.6,126.1,81.6,126.6,82.7,126.9z"/>
			<path class="st4" d="M36.5,279.1c-6.1,7.5-12.5,16.2-11.3,25.1c1.9,6.7,6.3,12.5,12.4,15.9c2.8,2,5.8,3.7,8.9,5.2
				c3.7,1.9,9.8,5,10.3,7.3c0.6,2.9,0.2,5.9-0.9,8.6c-1.3,2.7-2.6,5-3.7,7c-3.1,5.5-8.4,14.8-0.5,21.5c1.8,1.6,5,4.1,7.9,6.3
				c-2.1,3.8-3.1,8.1-2.8,12.4c0.5,3.3,2.3,6.3,5,8.3c1.9,1.4,3.9,2.5,6,3.7c5,2.9,7,4.2,7.7,6.9c0.4,3.5,0.1,7-0.9,10.3
				c-0.5,2.2-1,4.5-1.3,6.7c-0.9,7.8,0.1,15.6,2.9,22.9c3.8,13.6,16.1,23.1,30.2,23.3c2.3,0,4.7-0.2,7-0.7
				c24.3-5.9,48.3-13,71.9-21.5c19.2,11.3,31.4,45.6,34.5,58.5c0.9,3.8,4.4,6.5,8.3,6.5h215.8c2.7,0,5.3-1.3,6.9-3.5
				c1.6-2.2,2.1-5,1.3-7.6c-2.3-6-5.5-11.6-9.6-16.6c-2.3-2.9-4.4-6.1-6.1-9.4c-3.8-7.9-7.1-16-9.6-24.4
				c-4.9-16.5-8.2-33.4-10.1-50.5c-3-25.5,0.8-51.4,11.2-74.9c6.3-13,14.1-25.3,23.2-36.6c5.2-6.9,10.5-14.1,15.3-21.7
				c13.5-20.9,20.7-45.2,20.9-70.1c0.5-24.5-2.5-48.9-8.9-72.5c-8.6-29.3-26.5-55.1-51-73.4C378.8,14.3,333.8-1.4,281.2,1.3
				c-27.8,1.9-55.4,5.9-82.5,11.8c-38.5,7.8-66.5,21.3-85.5,41.4l0,0l0,0c-8.3,8.8-15.5,18.5-21.5,28.9c-1.2,2-1.5,4.4-0.9,6.6
				c0.6,2.2,2.1,4.1,4.2,5.2c4.1,2.1,9.1,0.7,11.5-3.2c5.4-9.3,11.8-17.9,19.2-25.7c16.5-17.4,41.5-29.3,76.5-36.4
				c26.4-5.8,53.1-9.6,80-11.5c48.3-2.4,89.7,12.1,134.4,47.1c21.7,16,37.6,38.7,45.1,64.6c6,22,8.8,44.8,8.3,67.6
				c-0.1,21.7-6.5,43-18.2,61.2c-4.5,7-9.6,13.9-14.6,20.6c-9.9,12.3-18.3,25.7-25.1,39.9c-11.5,26.3-15.8,55.2-12.5,83.8
				c1.9,18.1,5.5,36,10.7,53.5c2.8,9.2,6.4,18.2,10.6,26.8c2.2,4.2,4.8,8.3,7.7,12c0.1,0.2,0.2,0.3,0.3,0.5H234.4
				c-5.7-20.3-16-38.9-30.1-54.5c2.2-0.8,4.4-1.5,6.3-2.2c6.4-2.2,11.2-3.9,13.6-4.7c36.6-11.5,54.9-28.1,54.4-49.4
				c-0.1-4.7-4-8.4-8.7-8.3c-4.7,0.1-8.4,4-8.3,8.7c0.2,8.8-7,21.6-42.4,32.7c-2.5,0.8-7.5,2.5-14.1,4.9c-6.1,2.1-13.6,4.8-21.9,7.6
				l0,0l0,0c-24,8.7-48.5,16.1-73.3,22.1c-8,1.6-15.8-3.5-17.6-11.4c-1.8-4.8-2.6-10-2.1-15.1c0.2-1.8,0.6-3.5,1-5.3
				c1.8-5.9,2-12.2,0.8-18.2c-2.4-7.8-8.2-14.2-15.7-17.5c-0.6-0.3-1.2-0.7-1.8-1c0.9-1.9,2-3.6,3.3-5.3c1.4-1.8,2.1-4.1,1.7-6.4
				c-0.3-2.3-1.5-4.3-3.4-5.7c-2.1-1.5-6.9-5.2-10.4-8c0.4-0.8,0.9-1.7,1.4-2.5c1.3-2.3,2.8-5,4.3-8c2.7-6,3.5-12.6,2.3-19.1
				c-2-10.5-12-15.6-19.3-19.3c-2.5-1.2-4.8-2.5-7.1-4.1c-1.8-1.2-3.5-2.6-5-4.1c0-1.3,1.4-4.4,7.9-12.4
				c15.3-19.7,28.3-40.9,39-63.4c2.1-3.5,3.2-7.5,3.3-11.6c-0.9-8.6-5.4-16.4-12.5-21.4c-3.4-3.2-6.7-6.1-7.1-8.8
				c0-2.1,0.5-4.1,1.4-6l0,0c1.9-4.9,4.2-10,6.6-15.4c1.2-2.7,2.3-5.5,3.4-8.4c0.9-2.2,0.8-4.7-0.2-6.8s-3-3.7-5.3-4.3
				c-4.3-1.1-8.8,1.1-10.5,5.2c-0.9,2.4-1.9,4.9-3,7.4c-2.2,5.1-4.7,10.4-6.9,16.2l0,0c-2,4.5-2.8,9.5-2.3,14.4
				c1.7,7.6,6.2,14.4,12.5,19c4.2,3.8,6.9,6.5,7,9c-0.3,1.3-0.8,2.5-1.5,3.6C63.6,239.9,51.1,260.2,36.5,279.1z"/>
			<path class="st4" d="M206.5,139c-4.1,0-7.7,3-8.4,7c-2.5,14.1-2.5,28.6,0,42.7c0.7,4.1,4.3,7,8.4,7h17.7c2,6.7,4.6,13.1,8,19.2
				l-12.5,12.5c-2.9,2.9-3.3,7.5-1,10.9c8.2,11.8,18.4,22,30.2,30.2c3.4,2.4,8,2,10.9-1l12.5-12.5c6.1,3.3,12.6,6,19.2,8v17.7
				c0,4.1,3,7.7,7,8.4c14.1,2.5,28.6,2.5,42.7,0c4.1-0.7,7-4.3,7-8.4v-17.7c6.7-2,13.1-4.6,19.2-8l12.5,12.5c2.9,2.9,7.5,3.3,10.9,1
				c11.8-8.2,22-18.4,30.2-30.2c2.4-3.4,2-8-1-10.9L407.8,215c3.3-6.1,6-12.6,8-19.2h17.7c4.1,0,7.7-3,8.4-7
				c2.5-14.1,2.5-28.6,0-42.7c-0.7-4.1-4.3-7-8.4-7h-17.7c-2-6.7-4.6-13.1-8-19.2l12.5-12.5c2.9-2.9,3.3-7.5,1-10.9
				c-8.2-11.8-18.4-22-30.2-30.2c-3.4-2.4-8-2-10.9,1l-12.5,12.5c-6.1-3.3-12.6-6-19.2-8V54c0-4.1-3-7.7-7-8.4
				c-14.1-2.5-28.6-2.5-42.7,0c-4.1,0.7-7,4.3-7,8.4v17.7c-6.7,2-13.1,4.6-19.2,8l-12.5-12.5c-2.9-2.9-7.5-3.3-10.9-1
				c-11.8,8.2-22,18.4-30.2,30.2c-2.4,3.4-2,8,1,10.9l12.5,12.5c-3.3,6.1-6,12.6-8,19.2L206.5,139z M239.2,149.4
				c2-9.4,5.7-18.3,10.9-26.3c2.2-3.4,1.7-7.8-1.1-10.6l-12-12c4.7-5.9,10.1-11.3,16-16l12,12c2.8,2.8,7.3,3.3,10.6,1.2
				c8.1-5.2,17-8.9,26.4-10.9c3.9-0.9,6.7-4.3,6.7-8.3V61.3c7.5-0.8,15.1-0.8,22.6,0v16.9c0,4,2.8,7.5,6.7,8.3
				c9.4,2,18.3,5.7,26.4,10.9c3.4,2.2,7.8,1.7,10.6-1.2l12-12c5.9,4.7,11.3,10.1,16,16l-12,12c-2.8,2.8-3.3,7.3-1.1,10.6
				c5.2,8.1,8.9,17,10.9,26.3c0.9,3.9,4.3,6.7,8.3,6.7h16.9c0.8,7.5,0.8,15.1,0,22.7h-16.9c-4,0-7.5,2.8-8.3,6.7
				c-2,9.4-5.7,18.3-10.9,26.3c-2.2,3.4-1.7,7.8,1.1,10.6l12,12c-4.7,5.9-10.1,11.3-16,16l-12-12c-2.8-2.8-7.3-3.3-10.6-1.1
				c-8.1,5.2-17,8.9-26.4,10.9c-3.9,0.9-6.7,4.3-6.7,8.3v16.9c-7.5,0.8-15.1,0.8-22.6,0v-16.9c0-4-2.8-7.5-6.7-8.3
				c-9.4-2-18.3-5.7-26.4-10.9c-3.4-2.2-7.8-1.7-10.6,1.1l-12,12c-5.9-4.7-11.3-10.1-16-16l12-12c2.8-2.8,3.3-7.3,1.1-10.6
				c-5.2-8.1-8.9-17-10.9-26.3c-0.9-3.9-4.3-6.7-8.3-6.7h-16.9c-0.8-7.5-0.8-15.1,0-22.7h16.9C234.9,156.1,238.3,153.3,239.2,149.4
				L239.2,149.4z"/>
			<path class="st4" d="M186.3,220.8l-6.9,6.9c-2.7-1.6-5.6-2.8-8.7-3.6v-9.7c0-4.7-3.8-8.5-8.5-8.5c-4.7,0-8.5,3.8-8.5,8.5v9.7
				c-3.1,0.8-6,2-8.7,3.6l-6.9-6.9c-2.2-2.2-5.3-3-8.2-2.2c-2.9,0.8-5.2,3.1-6,6c-0.8,2.9,0.1,6.1,2.2,8.2l6.9,6.9
				c-1.6,2.7-2.8,5.6-3.6,8.7h-9.7c-4.7,0-8.5,3.8-8.5,8.5c0,4.7,3.8,8.5,8.5,8.5h9.7c0.8,3.1,2,6,3.6,8.7l-6.9,6.9
				c-2.2,2.2-3,5.3-2.2,8.2c0.8,2.9,3.1,5.2,6,6c2.9,0.8,6.1-0.1,8.2-2.2l6.9-6.9c2.7,1.6,5.6,2.8,8.7,3.6v9.7
				c0,4.7,3.8,8.5,8.5,8.5c4.7,0,8.5-3.8,8.5-8.5v-9.7c3.1-0.8,6-2,8.7-3.6l6.9,6.9c3.3,3.3,8.7,3.3,12.1,0s3.3-8.7,0-12.1l-6.9-6.9
				c1.6-2.7,2.8-5.6,3.6-8.7h9.7c4.7,0,8.5-3.8,8.5-8.5c0-4.7-3.8-8.5-8.5-8.5H195c-0.8-3.1-2-6-3.6-8.7l6.9-6.9
				c3.3-3.3,3.3-8.7,0-12.1C195,217.5,189.6,217.5,186.3,220.8z M162.1,274.1c-9.4,0-17.1-7.6-17.1-17.1s7.6-17.1,17.1-17.1
				s17.1,7.6,17.1,17.1C179.2,266.4,171.5,274.1,162.1,274.1z"/>
			<path class="st4" d="M110.9,146.1c-4.7,0-8.5,3.8-8.5,8.5s3.8,8.5,8.5,8.5h6.5c0.5,1.7,1.2,3.4,2.1,5l-4.6,4.6
				c-2.2,2.2-3,5.3-2.2,8.2c0.8,2.9,3.1,5.2,6,6s6.1-0.1,8.2-2.2l4.6-4.6c1.6,0.8,3.2,1.5,4.9,2v6.5c0,4.7,3.8,8.5,8.5,8.5
				c4.7,0,8.5-3.8,8.5-8.5v-6.5c1.7-0.5,3.4-1.2,4.9-2l4.6,4.6c3.3,3.3,8.7,3.3,12.1,0s3.3-8.7,0-12.1l-4.6-4.6
				c0.8-1.6,1.5-3.2,2.1-5h6.5c4.7,0,8.5-3.8,8.5-8.5s-3.8-8.5-8.5-8.5h-6.5c-0.5-1.7-1.2-3.4-2.1-5l4.6-4.6c2.2-2.2,3-5.3,2.2-8.2
				c-0.8-2.9-3.1-5.2-6-6c-2.9-0.8-6.1,0.1-8.2,2.2l-4.6,4.6c-1.6-0.8-3.2-1.5-4.9-2v-6.5c0-4.7-3.8-8.5-8.5-8.5
				c-4.7,0-8.5,3.8-8.5,8.5v6.6c-1.7,0.5-3.4,1.2-4.9,2l-4.6-4.6c-3.3-3.3-8.7-3.3-12.1,0s-3.3,8.7,0,12.1l4.6,4.6
				c-0.8,1.6-1.5,3.2-2.1,5L110.9,146.1L110.9,146.1z M133.1,154.6c0-5.4,3.6-10.1,8.9-11.5c5.2-1.4,10.7,0.9,13.4,5.6
				c2.7,4.7,1.9,10.6-1.9,14.4c-3.4,3.4-8.6,4.4-13,2.6C136,163.8,133.1,159.4,133.1,154.6z"/>
			<path class="st4" d="M320,222.9c30.6,0,55.5-24.8,55.5-55.5s-24.8-55.5-55.5-55.5s-55.5,24.8-55.5,55.5
				C264.6,198,289.4,222.8,320,222.9z M320,129c21.2,0,38.4,17.2,38.4,38.4s-17.2,38.4-38.4,38.4s-38.4-17.2-38.4-38.4
				C281.6,146.2,298.8,129,320,129z"/>
		</g>
	</g>
</g>
</svg>
