<?xml version="1.0" encoding="utf-8"?>
<!-- Generator: Adobe Illustrator 22.1.0, SVG Export Plug-In . SVG Version: 6.00 Build 0)  -->
<svg version="1.1" id="Capa_1" xmlns="http://www.w3.org/2000/svg" xmlns:xlink="http://www.w3.org/1999/xlink" x="0px" y="0px"
	 viewBox="0 0 512 512" style="enable-background:new 0 0 512 512;" xml:space="preserve">
<style type="text/css">
	.st0{fill:#D9EEF7;}
	.st1{fill:#F2F2F2;}
	.st2{fill:#AAC4DA;}
	.st3{fill:#4C5B66;}
</style>
<g>
	<path class="st0" d="M192,512H42.7v-85.3c0-23.6,19.1-42.7,42.7-42.7c16.1,0.3,29.8-11.7,31.8-27.6c13.1,8.4,30,8.4,43.1,0
		c2,16,15.7,27.9,31.8,27.6c23.6,0,42.7,19.1,42.7,42.7V512H192z"/>
	<path class="st0" d="M160.2,356.4c-13.1,8.4-30,8.4-43.1,0c-18.7-11.3-31.8-37.3-31.8-68.7v-21c0,0,10.7-42.7,53.3-42.7
		s53.3,42.7,53.3,42.7v21C192,319,178.9,345.1,160.2,356.4z"/>
	<path class="st0" d="M426.7,512H277.3v-85.3c0-23.6,19.1-42.7,42.7-42.7c16.1,0.3,29.8-11.7,31.8-27.6c13.1,8.4,30,8.4,43.1,0
		c2,16,15.7,27.9,31.8,27.6c23.6,0,42.7,19.1,42.7,42.7V512H426.7z"/>
	<path class="st0" d="M394.9,356.4c-13.1,8.4-30,8.4-43.1,0C333.1,345.1,320,319,320,287.7v-21c0,0,10.7-42.7,53.3-42.7
		s53.3,42.7,53.3,42.7v21C426.7,319,413.5,345.1,394.9,356.4z"/>
</g>
<circle class="st1" cx="256" cy="128" r="32"/>
<path class="st2" d="M373.3,106.7v42.7h-34.8c-2,7.7-5.1,15.1-9.1,22l24.5,24.5L323.8,226l-24.5-24.5c-6.9,4-14.3,7-22,9.1v34.8
	h-42.7v-34.8c-7.7-2-15.1-5.1-22-9.1L188.2,226L158,195.8l24.5-24.5c-4-6.9-7-14.3-9.1-22h-34.8v-42.7h34.8c2-7.7,5.1-15.1,9.1-22
	L158,60.2L188.2,30l24.5,24.5c6.9-4,14.3-7,22-9.1V10.7h42.7v34.8c7.7,2,15.1,5.1,22,9.1L323.8,30L354,60.2l-24.5,24.5
	c4,6.9,7,14.3,9.1,22H373.3z M288,128c0-17.7-14.3-32-32-32s-32,14.3-32,32s14.3,32,32,32S288,145.7,288,128z"/>
<g>
	<path class="st3" d="M138.7,160h26.9c1.1,3.1,2.4,6.2,3.9,9.3l-19,19c-4.2,4.2-4.2,10.9,0,15.1l30.2,30.2c4.2,4.2,10.9,4.2,15.1,0
		l19-19c3.1,1.4,6.2,2.7,9.3,3.9v26.9c0,5.9,4.8,10.7,10.7,10.7h42.7c5.9,0,10.7-4.8,10.7-10.7v-26.9c3.1-1.1,6.3-2.4,9.3-3.9l19,19
		c4.2,4.2,10.9,4.2,15.1,0l30.2-30.2c4.2-4.2,4.2-10.9,0-15.1l-19-19c1.4-3.1,2.7-6.2,3.9-9.3h26.9c5.9,0,10.7-4.8,10.7-10.7v-42.7
		c0-5.9-4.8-10.7-10.7-10.7h-26.9c-1.1-3.1-2.4-6.2-3.9-9.3l19-19c4.2-4.2,4.2-10.9,0-15.1l-30.2-30.2c-4.2-4.2-10.9-4.2-15.1,0
		l-19,19c-3.1-1.4-6.2-2.7-9.3-3.9V10.7C288,4.8,283.2,0,277.3,0h-42.7C228.8,0,224,4.8,224,10.7v26.9c-3.1,1.1-6.3,2.4-9.3,3.9
		l-19-19c-4.2-4.2-10.9-4.2-15.1,0l-30.2,30.2c-4.2,4.2-4.2,10.9,0,15.1l19,19c-1.4,3.1-2.7,6.2-3.9,9.3h-26.9
		c-5.9,0-10.7,4.8-10.7,10.7v42.7C128,155.2,132.8,160,138.7,160z M149.3,117.3h24.1c4.9,0,9.1-3.3,10.3-8c1.8-6.8,4.5-13.3,8-19.3
		c2.4-4.2,1.7-9.5-1.7-12.9l-17-17l15.1-15.1l17,17c3.4,3.4,8.7,4.1,12.9,1.7c6.1-3.5,12.6-6.2,19.3-8c4.7-1.2,8-5.5,8-10.3V21.3
		h21.3v24.1c0,4.9,3.3,9.1,8,10.3c6.8,1.8,13.3,4.5,19.3,8c4.2,2.4,9.5,1.7,12.9-1.7l17-17l15.1,15.1l-17,17
		c-3.4,3.4-4.1,8.7-1.7,12.9c3.5,6.1,6.2,12.6,8,19.3c1.2,4.7,5.5,8,10.3,8h24.1v21.3h-24.1c-4.9,0-9.1,3.3-10.3,8
		c-1.8,6.8-4.5,13.3-8,19.3c-2.4,4.2-1.7,9.5,1.7,12.9l17,17l-15.1,15.1l-17-17c-3.4-3.4-8.7-4.1-12.9-1.7c-6.1,3.5-12.6,6.2-19.3,8
		c-4.7,1.2-8,5.5-8,10.3v24.1h-21.3v-24.1c0-4.9-3.3-9.1-8-10.3c-6.8-1.8-13.3-4.5-19.3-8c-4.2-2.4-9.5-1.7-12.9,1.7l-17,17
		l-15.1-15.1l17-17c3.4-3.4,4.1-8.7,1.7-12.9c-3.5-6.1-6.2-12.6-8-19.3c-1.2-4.7-5.5-8-10.3-8h-24.1L149.3,117.3L149.3,117.3z"/>
	<path class="st3" d="M256,170.7c23.6,0,42.7-19.1,42.7-42.7S279.6,85.3,256,85.3s-42.7,19.1-42.7,42.7S232.4,170.7,256,170.7z
		 M256,106.7c11.8,0,21.3,9.6,21.3,21.3s-9.6,21.3-21.3,21.3c-11.8,0-21.3-9.6-21.3-21.3S244.2,106.7,256,106.7z"/>
	<path class="st3" d="M192,373.3c-8.5,0.3-16.3-4.7-19.7-12.5c20.4-18.7,31.5-45.5,30.4-73.2v-21h-21.3v21
		c0,35.5-19.1,64.3-42.7,64.3S96,323.2,96,287.7v-19.5c5.3-19.4,22.6-33,42.7-33.5v-21.3c-30.3,0.5-56.4,21.3-63.7,50.7
		c-0.2,0.8-0.3,1.7-0.3,2.6v21c-1.2,27.7,10,54.4,30.4,73.2c-3.4,7.8-11.2,12.8-19.7,12.5c-29.4,0-53.3,23.9-53.3,53.3V512h21.3
		v-85.3c0-17.7,14.3-32,32-32c16.3,0.2,31.3-9,38.7-23.6c9.5,3,19.8,3,29.3,0c7.3,14.6,22.4,23.7,38.7,23.6c17.7,0,32,14.3,32,32
		V512h21.3v-85.3C245.3,397.2,221.4,373.4,192,373.3L192,373.3z"/>
	<path class="st3" d="M74.7,437.3H96V512H74.7V437.3z"/>
	<path class="st3" d="M181.3,437.3h21.3V512h-21.3L181.3,437.3L181.3,437.3z"/>
	<path class="st3" d="M426.7,373.3c-8.5,0.3-16.3-4.7-19.7-12.5c20.4-18.7,31.5-45.5,30.4-73.2v-21c0-0.9-0.1-1.7-0.3-2.6
		c-7.2-29.4-33.4-50.2-63.7-50.7v21.3c20,0.5,37.4,14.1,42.7,33.5v19.5c0,35.5-19.1,64.3-42.7,64.3s-42.7-28.8-42.7-64.3v-21h-21.3
		v21c-1.2,27.7,10,54.4,30.4,73.2c-3.4,7.8-11.2,12.8-19.7,12.5c-29.4,0-53.3,23.9-53.3,53.3V512H288v-85.3c0-17.7,14.3-32,32-32
		c16.3,0.2,31.3-9,38.7-23.6c9.5,3,19.8,3,29.3,0c7.3,14.6,22.4,23.7,38.7,23.6c17.7,0,32,14.3,32,32V512H480v-85.3
		C480,397.2,456.1,373.4,426.7,373.3L426.7,373.3z"/>
	<path class="st3" d="M309.3,437.3h21.3V512h-21.3V437.3z"/>
	<path class="st3" d="M416,437.3h21.3V512H416V437.3z"/>
	<path class="st3" d="M245.3,277.3h21.3v21.3h-21.3L245.3,277.3L245.3,277.3z"/>
	<path class="st3" d="M245.3,320h21.3v21.3h-21.3L245.3,320L245.3,320z"/>
	<path class="st3" d="M245.3,362.7h21.3V384h-21.3L245.3,362.7L245.3,362.7z"/>
</g>
</svg>
