<?xml version="1.0" encoding="utf-8"?>
<!-- Generator: Adobe Illustrator 22.1.0, SVG Export Plug-In . SVG Version: 6.00 Build 0)  -->
<svg version="1.1" id="Capa_1" xmlns="http://www.w3.org/2000/svg" xmlns:xlink="http://www.w3.org/1999/xlink" x="0px" y="0px"
	 viewBox="0 0 512 512" style="enable-background:new 0 0 512 512;" xml:space="preserve">
<style type="text/css">
	.st0{fill:#006DF0;}
</style>
<g>
	<g>
		<path class="st0" d="M486,40.2c-0.7-2.5-2.6-4.5-5-5.5L395.7,0.6c-4.4-1.8-9.3,0.4-11.1,4.7c-0.4,1-0.6,2.1-0.6,3.2v110.9h-51.2
			c-4.7,0-8.5,3.8-8.5,8.5v102.4H221.9c-4.7,0-8.5,3.8-8.5,8.5v102.4H102.4c-4.7,0-8.5,3.8-8.5,8.5v153.6c0,4.7,3.8,8.5,8.5,8.5
			s8.5-3.8,8.5-8.5V358.4h110.9c4.7,0,8.5-3.8,8.5-8.5V247.5h102.4c4.7,0,8.5-3.8,8.5-8.5V136.5h119.5v366.9c0,4.7,3.8,8.5,8.5,8.5
			c4.7,0,8.5-3.8,8.5-8.5V128c0-4.7-3.8-8.5-8.5-8.5h-68.3V74.6l79.2-23.8C484.8,49.5,487.4,44.8,486,40.2z M401.1,56.8V21.1
			L452,41.5L401.1,56.8z"/>
	</g>
</g>
<g>
	<g>
		<path class="st0" d="M34.1,469.3c-4.7,0-8.5,3.8-8.5,8.5v25.6c0,4.7,3.8,8.5,8.5,8.5s8.5-3.8,8.5-8.5v-25.6
			C42.7,473.2,38.8,469.3,34.1,469.3z"/>
	</g>
</g>
<g>
	<g>
		<path class="st0" d="M313.2,87.8l-25.6-25.6c-0.1-0.1-0.2-0.1-0.3-0.2c-0.7-0.7-1.6-1.3-2.5-1.7c-0.1,0-0.1,0-0.2-0.1
			c-0.9-0.3-1.8-0.5-2.7-0.5c-0.3,0-0.5,0-0.9,0c-0.7,0-1.5,0.2-2.2,0.4c-0.3,0.1-0.5,0.2-0.8,0.3c-1,0.4-1.8,1-2.6,1.7l-25.6,25.6
			c-3.3,3.4-3.2,8.8,0.2,12.1c3.3,3.2,8.5,3.2,11.9,0l11.1-11v73.3H153.6c-4.7,0-8.5,3.8-8.5,8.5v110.9H34.1c-4.7,0-8.5,3.8-8.5,8.5
			v153.6c0,4.7,3.8,8.5,8.5,8.5s8.5-3.8,8.5-8.5V298.7h110.9c4.7,0,8.5-3.8,8.5-8.5V179.2h119.5c4.7,0,8.5-3.8,8.5-8.5V88.9l11,11
			c3.4,3.3,8.8,3.2,12.1-0.2C316.4,96.4,316.4,91.1,313.2,87.8z"/>
	</g>
</g>
<g>
	<g>
		<path class="st0" d="M204.8,375.5h-68.3c-4.7,0-8.5,3.8-8.5,8.5c0,4.7,3.8,8.5,8.5,8.5h68.3c4.7,0,8.5-3.8,8.5-8.5
			C213.3,379.3,209.5,375.5,204.8,375.5z"/>
	</g>
</g>
<g>
	<g>
		<path class="st0" d="M324.3,264.5H256c-4.7,0-8.5,3.8-8.5,8.5s3.8,8.5,8.5,8.5h68.3c4.7,0,8.5-3.8,8.5-8.5S329,264.5,324.3,264.5z
			"/>
	</g>
</g>
<g>
	<g>
		<path class="st0" d="M435.2,153.6h-68.3c-4.7,0-8.5,3.8-8.5,8.5c0,4.7,3.8,8.5,8.5,8.5h68.3c4.7,0,8.5-3.8,8.5-8.5
			C443.7,157.4,439.9,153.6,435.2,153.6z"/>
	</g>
</g>
</svg>
