<?xml version="1.0" encoding="utf-8"?>
<!-- Generator: Adobe Illustrator 22.1.0, SVG Export Plug-In . SVG Version: 6.00 Build 0)  -->
<svg version="1.1" id="Capa_1" xmlns="http://www.w3.org/2000/svg" xmlns:xlink="http://www.w3.org/1999/xlink" x="0px" y="0px"
	 viewBox="0 0 480 480" style="enable-background:new 0 0 480 480;" xml:space="preserve">
<style type="text/css">
	.st0{fill:#B3D5E4;}
	.st1{fill:#E4D9B3;}
	.st2{fill:#D45B5B;}
	.st3{fill:#23374E;}
</style>
<g>
	<path class="st0" d="M440,8H40C22.3,8,8,22.3,8,40v320c0,17.7,14.3,32,32,32h128h144h128c17.7,0,32-14.3,32-32V40
		C472,22.3,457.7,8,440,8z M200,360h80H200z M440,328H40V40h400V328z"/>
	<polygon class="st0" points="48,440 8,472 472,472 432,440 352,440 128,440 	"/>
	<polygon class="st0" points="128,440 352,440 312,392 168,392 	"/>
</g>
<path class="st1" d="M40,328h400V40H40V328z M208,296H96v-32h112V296z M376,256h40H376z M320,224h96H320z M376,192h40H376z M328,160
	h88H328z M320,120h48H320z M400,96H288H400z M312,160h-40H312z M360,192h-88H360z M304,224h-32H304z M360,256h-88H360z M80,232V88
	h72v32h80v112h16h-16h-24h-32h-24H80H64H80z"/>
<g>
	<path class="st2" d="M152,120V88H80v144h72V120z M96,208h16H96z M96,184h16H96z M96,160h16H96z M96,136h16H96z M96,112h16H96z
		 M120,208h16H120z M120,184h16H120z M120,160h16H120z M120,136h16H120z M120,112h16H120z"/>
	<path class="st2" d="M176,232v-40h32v40h24V120h-80v112H176z M224,144h-16H224z M224,168h-16H224z M200,144h-16H200z M200,168h-16
		H200z M176,144h-16H176z M176,168h-16H176z"/>
	<rect x="176" y="192" class="st2" width="32" height="40"/>
	<rect x="96" y="264" class="st2" width="112" height="32"/>
</g>
<g>
	<path class="st3" d="M440,0H40C17.9,0,0,17.9,0,40v320c0,22.1,17.9,40,40,40h110.9l-26.7,32H48c-1.8,0-3.6,0.6-5,1.8l-40,32
		c-2.6,2.1-3.7,5.7-2.5,8.9S4.6,480,8,480h464c3.4,0,6.4-2.2,7.5-5.4s0.1-6.8-2.5-8.9l-40-32c-1.4-1.1-3.2-1.8-5-1.8h-76.2l-26.7-32
		H440c22.1,0,40-17.9,40-40V40C480,17.9,462.1,0,440,0z M449.2,464H30.8l20-16H128h224h77.2L449.2,464z M334.9,432H145.1l26.7-32
		h136.5L334.9,432z M464,360c0,13.2-10.8,24-24,24H312H168H40c-13.2,0-24-10.8-24-24V40c0-13.2,10.8-24,24-24h400
		c13.2,0,24,10.8,24,24V360z"/>
	<path class="st3" d="M440,32H40c-4.4,0-8,3.6-8,8v288c0,4.4,3.6,8,8,8h400c4.4,0,8-3.6,8-8V40C448,35.6,444.4,32,440,32z M432,320
		H48V48h384V320z"/>
	<rect x="200" y="352" class="st3" width="80" height="16"/>
	<path class="st3" d="M152,240h24h32h24h16v-16h-8V120c0-4.4-3.6-8-8-8h-72V88c0-4.4-3.6-8-8-8H80c-4.4,0-8,3.6-8,8v136h-8v16h16
		H152z M184,224v-24h16v24H184z M224,128v8h-16v16h16v8h-16v16h16v48h-8v-32c0-4.4-3.6-8-8-8h-32c-4.4,0-8,3.6-8,8v32h-8v-48h16v-16
		h-16v-8h16v-16h-16v-8H224z M88,96h56v24v104H88V96z"/>
	<rect x="96" y="104" class="st3" width="16" height="16"/>
	<rect x="120" y="104" class="st3" width="16" height="16"/>
	<rect x="184" y="136" class="st3" width="16" height="16"/>
	<rect x="184" y="160" class="st3" width="16" height="16"/>
	<rect x="96" y="128" class="st3" width="16" height="16"/>
	<rect x="120" y="128" class="st3" width="16" height="16"/>
	<rect x="96" y="152" class="st3" width="16" height="16"/>
	<rect x="120" y="152" class="st3" width="16" height="16"/>
	<rect x="96" y="176" class="st3" width="16" height="16"/>
	<rect x="120" y="176" class="st3" width="16" height="16"/>
	<rect x="96" y="200" class="st3" width="16" height="16"/>
	<rect x="120" y="200" class="st3" width="16" height="16"/>
	<rect x="288" y="88" class="st3" width="112" height="16"/>
	<rect x="320" y="112" class="st3" width="48" height="16"/>
	<path class="st3" d="M208,256H96c-4.4,0-8,3.6-8,8v32c0,4.4,3.6,8,8,8h112c4.4,0,8-3.6,8-8v-32C216,259.6,212.4,256,208,256z
		 M200,288h-96v-16h96V288z"/>
	<rect x="328" y="152" class="st3" width="88" height="16"/>
	<rect x="272" y="152" class="st3" width="40" height="16"/>
	<rect x="376" y="184" class="st3" width="40" height="16"/>
	<rect x="272" y="184" class="st3" width="88" height="16"/>
	<rect x="320" y="216" class="st3" width="96" height="16"/>
	<rect x="272" y="216" class="st3" width="32" height="16"/>
	<rect x="376" y="248" class="st3" width="40" height="16"/>
	<rect x="272" y="248" class="st3" width="88" height="16"/>
</g>
</svg>
