<?xml version="1.0" encoding="utf-8"?>
<!-- Generator: Adobe Illustrator 22.1.0, SVG Export Plug-In . SVG Version: 6.00 Build 0)  -->
<svg version="1.1" id="Camada_1" xmlns="http://www.w3.org/2000/svg" xmlns:xlink="http://www.w3.org/1999/xlink" x="0px" y="0px"
	 viewBox="0 0 322 312" style="enable-background:new 0 0 322 312;" xml:space="preserve">
<style type="text/css">
	.st0{fill:#FFFFFF;stroke:#FFFFFF;stroke-miterlimit:10;}
</style>
<g id="Facebook_1_">
	<path class="st0" d="M164.2,12.3c40.3,0,76.7,16.2,103.1,42.7c26.4,26.4,42.7,62.8,42.7,103.1s-16.2,76.7-42.7,103.1
		c-26.4,26.4-62.8,42.7-103.1,42.7s-76.7-16.2-103.1-42.7s-42.7-62.8-42.7-103.1S34.6,81.4,61.1,55C87.4,28.6,123.8,12.3,164.2,12.3
		L164.2,12.3z M259.2,63.1c-24.3-24.3-58-39.4-95-39.4c-37.1,0-70.7,15.1-95,39.4s-39.4,57.9-39.4,95s15.1,70.7,39.4,95.1
		c24.3,24.3,57.9,39.3,95,39.3s70.7-15.1,95.1-39.3c24.3-24.4,39.3-58,39.3-95.1S283.5,87.5,259.2,63.1L259.2,63.1z"/>
	<path class="st0" d="M175.2,128.4v-11.9c0-5.8,3.8-7.1,6.5-7.1s16.7,0,16.7,0V83.9h-23.1c-25.6,0-31.4,18.9-31.4,31.2v13.4H129v18
		v11.7h15.1c0,33.8,0,74.4,0,74.4H174c0,0,0-41.2,0-74.4h22l1-11.7l1.8-18.1H175v0.1h0.2V128.4z"/>
</g>
</svg>
