<?xml version="1.0" encoding="utf-8"?>
<!-- Generator: Adobe Illustrator 22.1.0, SVG Export Plug-In . SVG Version: 6.00 Build 0)  -->
<svg version="1.1" id="Camada_1" xmlns="http://www.w3.org/2000/svg" xmlns:xlink="http://www.w3.org/1999/xlink" x="0px" y="0px"
	 viewBox="0 0 324 324" style="enable-background:new 0 0 324 324;" xml:space="preserve">
<style type="text/css">
	.st0{fill:#FFFFFF;stroke:#FFFFFF;stroke-miterlimit:10;}
</style>
<g id="G_x2B__1_">
	<path class="st0" d="M160.5,13.3c39.4,0,75,15.9,100.8,41.7s41.8,61.4,41.8,100.7c0,39.4-16,74.9-41.8,100.7
		c-25.8,25.8-61.4,41.7-100.8,41.7c-39.4,0-75-15.9-100.8-41.7C33.9,230.6,17.9,195,17.9,155.7c0-39.4,16-74.9,41.8-100.7
		C85.4,29.2,121,13.3,160.5,13.3L160.5,13.3z M253.4,62.9c-23.8-23.7-56.6-38.5-93-38.5c-36.3,0-69.2,14.8-93,38.5
		s-38.5,56.6-38.5,92.8c0,36.3,14.7,69.1,38.5,92.9c23.8,23.7,56.6,38.4,93,38.4c36.3,0,69.2-14.7,93-38.4
		c23.8-23.8,38.5-56.6,38.5-92.9C291.9,119.5,277.3,86.6,253.4,62.9L253.4,62.9z"/>
	<path class="st0" d="M175,145.8c-10.5,0.2-21,0.2-31.5,0.2c-3,0-6.1-0.2-9,0c-0.6,0-1.6,0.7-1.6,1.1c-0.1,6.1-0.1,12.1-0.1,18.5
		c8.6,0,17.1,0,25.7,0c-0.2,1.3-0.5,2.2-0.9,3.1c-3.9,11.7-16,17.4-29,15.3c-16.1-2.7-26.1-17.5-23.1-33.6c0.3-2.3,1.1-4.5,1.9-6.5
		c5.4-11.7,18.6-18.8,31.6-15.9c4.7,1,8.7,3.2,12.1,6.2c4.7-4.7,9.2-9.2,14.1-14.1c-0.3-0.2-0.9-0.6-1.2-1
		c-11.4-9.5-24.4-13.1-39-10.7c-21.1,3.4-36.2,20-39.5,39.3c-1.5,8.2-0.9,17,2.4,25.5c8.1,20.4,28.7,33,50.8,30.5
		c10.8-1.2,20.5-5,27.9-13c11.1-11.8,14-26,12.2-41.7C178.5,146.3,177.4,145.8,175,145.8L175,145.8z M222.8,147.3c-0.9,0-2,0-3.2,0
		c0-0.2,0-0.6,0-0.6c0-0.9,0-1.6,0-2.2c0-4,0.1-8,0-12.1c0-0.6-0.8-1.8-1.1-1.8c-3.6-0.2-7.3-0.2-11.2-0.2c0,4.9,0,9.5,0,14.1
		c0,0.9,0,1.8,0,2.7c-5.8,0-11.1,0-17,0c0,1.3,0,2.2,0,3.1c0.2,3,0.2,6.1,0.5,9.1c2.9,0.2,5.8,0.3,8.9,0.3c2.5,0.1,5,0,7.7,0
		c0,5.8,0,11.2,0,16.6c4.2-0.1,8.1,0,12.2,0c0-5.5,0-10.9,0-16.6c5.7,0,11.1,0,16.6,0c0-3.2,0-6.2,0-9.4c0-1,0-2,0-2.9
		C231.8,147.3,227.3,147.3,222.8,147.3L222.8,147.3z"/>
</g>
</svg>
