<?xml version="1.0" encoding="utf-8"?>
<!-- Generator: Adobe Illustrator 22.1.0, SVG Export Plug-In . SVG Version: 6.00 Build 0)  -->
<svg version="1.1" id="Camada_1" xmlns="http://www.w3.org/2000/svg" xmlns:xlink="http://www.w3.org/1999/xlink" x="0px" y="0px"
	 viewBox="0 0 320 316" style="enable-background:new 0 0 320 316;" xml:space="preserve">
<style type="text/css">
	.st0{fill:#FFFFFF;}
</style>
<g id="LinkedIn_1_">
	<path class="st0" d="M160.4,8.8C200.1,8.8,236,25,262,51.2s42.1,62.3,42.1,102.3S288,229.6,262,255.8s-61.9,42.4-101.6,42.4
		S84.8,282,58.8,255.8s-42.1-62.3-42.1-102.3S32.8,77.4,58.8,51.2S120.7,8.8,160.4,8.8L160.4,8.8z M254,59.1
		C230.1,34.9,197,20,160.4,20S90.7,34.9,66.8,59.1C42.8,83.2,28,116.5,28,153.3s14.8,70.1,38.8,94.2c23.9,24.2,57,39.1,93.6,39.1
		s69.7-14.9,93.6-39.1c24-24.1,38.8-57.4,38.8-94.2C292.8,116.6,278,83.2,254,59.1L254,59.1z"/>
	<path class="st0" d="M95.5,154.7v63.9h30.2v-69.1v-17.9H95.5V154.7z M224.5,158.4c-2-16.5-9.5-26.7-31.6-26.7
		c-13,0-21.7,4.8-25.4,11.8h-0.4v-11.8H143v16.7v70.3h25.2v-43.2c0-11.4,2.2-22.3,16.1-22.3c13.9,0,14.9,13,14.9,23.1v42.4h25.9
		v-47.8C225.2,166.4,225,162.2,224.5,158.4L224.5,158.4z M110.7,88.1c-8.4,0-15.1,6.8-15.1,15.2s6.8,15.2,15.1,15.2
		c8.4,0,15.1-6.8,15.1-15.2S119,88.1,110.7,88.1L110.7,88.1z"/>
</g>
</svg>
