<?xml version="1.0" encoding="utf-8"?>
<!-- Generator: Adobe Illustrator 22.1.0, SVG Export Plug-In . SVG Version: 6.00 Build 0)  -->
<svg version="1.1" id="Camada_1" xmlns="http://www.w3.org/2000/svg" xmlns:xlink="http://www.w3.org/1999/xlink" x="0px" y="0px"
	 viewBox="0 0 310 312" style="enable-background:new 0 0 310 312;" xml:space="preserve">
<style type="text/css">
	.st0{opacity:0.5;fill:none;stroke:#FFFFFF;stroke-miterlimit:10;enable-background:new    ;}
	.st1{fill:#FFFFFF;stroke:#FFFFFF;stroke-miterlimit:10;}
</style>
<g>
	<path class="st0" d="M248.6,61.6C224.7,37.8,191.8,23,155.5,23S86.2,37.8,62.4,61.6s-38.6,56.7-38.6,93.1s14.8,69.3,38.6,93.1
		c23.8,23.8,56.8,38.5,93.1,38.5c36.4,0,69.3-14.7,93.1-38.5c23.8-23.9,38.5-56.8,38.5-93.1C287.1,118.3,272.4,85.4,248.6,61.6
		L248.6,61.6z"/>
	<path class="st1" d="M119,154.7c0-20.2,16.4-36.6,36.5-36.6c20.2,0,36.6,16.4,36.6,36.6s-16.4,36.6-36.6,36.6
		C135.3,191.3,119,174.9,119,154.7L119,154.7z M193.3,83.1h-75.5C99.2,83.1,84,98.3,84,116.9v75.5c0,18.6,15.3,33.8,33.8,33.8h75.5
		c18.7,0,33.8-15.3,33.8-33.8v-75.5C227.1,98.3,211.9,83.1,193.3,83.1L193.3,83.1z M117.8,91.6h75.5c14,0,25.4,11.4,25.4,25.4v75.5
		c0,14-11.4,25.4-25.4,25.4h-75.5c-14,0-25.4-11.4-25.4-25.4V117C92.4,103,103.8,91.6,117.8,91.6L117.8,91.6z M200.8,102.2
		c-4.1,0-7.4,3.3-7.4,7.4s3.3,7.4,7.4,7.4c4.1,0,7.4-3.3,7.4-7.4C208.2,105.6,204.9,102.2,200.8,102.2L200.8,102.2z M201.7,154.7
		c0-25.5-20.6-46.2-46.2-46.2c-25.5,0-46.2,20.7-46.2,46.2s20.7,46.2,46.2,46.2C181,200.8,201.7,180.2,201.7,154.7L201.7,154.7z"/>
	<path class="st1" d="M154.4,12.5c39.4,0,75,15.9,100.9,41.7C281,80,297,115.6,297,155s-16,74.9-41.8,100.7
		c-25.8,25.8-61.4,41.7-100.9,41.7c-39.4,0-75-15.9-100.9-41.7C27.6,229.9,11.6,194.3,11.6,155c0-39.4,16-74.9,41.8-100.7
		C79.3,28.4,115,12.5,154.4,12.5L154.4,12.5z M248.5,60.4C224.3,36.3,191,21.3,154,21.3c-36.9,0-70.3,15-94.5,39.1
		s-39.1,57.5-39.1,94.2c0,36.9,14.9,70.2,39.1,94.4c24.2,24.1,57.5,39,94.5,39c36.9,0,70.3-14.9,94.5-39
		c24.2-24.2,39.1-57.5,39.1-94.4C287.7,117.9,272.7,84.6,248.5,60.4L248.5,60.4z"/>
</g>
</svg>
