<?xml version="1.0" encoding="utf-8"?>
<!-- Generator: Adobe Illustrator 22.1.0, SVG Export Plug-In . SVG Version: 6.00 Build 0)  -->
<svg version="1.1" id="Capa_1" xmlns="http://www.w3.org/2000/svg" xmlns:xlink="http://www.w3.org/1999/xlink" x="0px" y="0px"
	 viewBox="0 0 435 441" style="enable-background:new 0 0 435 441;" xml:space="preserve">
<style type="text/css">
	.st0{fill:#FFFFFF;}
</style>
<g>
	<path class="st0" d="M428,208.5C428,323.6,333.9,417,217.9,417c-36.8,0-71.4-9.4-101.5-25.9L0,428l37.9-111.9
		C18.8,284.7,7.8,247.8,7.8,208.5C7.8,93.3,101.8,0,217.9,0C333.9,0,428,93.4,428,208.5z M217.9,33.2
		c-97.4,0-176.6,78.6-176.6,175.3c0,38.4,12.5,73.9,33.6,102.7l-22.1,65.1l67.9-21.6c27.9,18.3,61.3,29,97.2,29
		c97.4,0,176.7-78.6,176.7-175.3C394.5,111.9,315.3,33.2,217.9,33.2z M324,256.5c-1.3-2.1-4.7-3.4-9.9-6
		c-5.1-2.6-30.5-14.9-35.2-16.6c-4.7-1.7-8.2-2.6-11.6,2.5c-3.4,5.1-13.3,16.6-16.3,20.1c-3,3.4-6,3.9-11.2,1.3
		c-5.1-2.6-21.8-8-41.4-25.4c-15.3-13.6-25.7-30.3-28.6-35.4c-3-5.1-0.3-7.9,2.2-10.4c2.3-2.3,5.1-6,7.7-9c2.6-3,3.4-5.1,5.1-8.5
		c1.7-3.4,0.8-6.4-0.4-9c-1.3-2.6-11.6-27.7-15.9-37.9c-4.3-10.2-8.6-8.5-11.6-8.5c-3,0-6.4-0.4-9.9-0.4s-9,1.2-13.7,6.4
		c-4.7,5.1-18,17.5-18,42.6c0,25.2,18.4,49.4,21,52.9c2.6,3.4,35.6,56.7,88,77.2c52.4,20.4,52.4,13.6,61.8,12.8
		c9.5-0.9,30.5-12.4,34.8-24.3C325.3,268.9,325.3,258.7,324,256.5z"/>
</g>
</svg>
