<?xml version="1.0" encoding="utf-8"?>
<!-- Generator: Adobe Illustrator 22.1.0, SVG Export Plug-In . SVG Version: 6.00 Build 0)  -->
<svg version="1.1" id="Camada_1" xmlns="http://www.w3.org/2000/svg" xmlns:xlink="http://www.w3.org/1999/xlink" x="0px" y="0px"
	 viewBox="0 0 1366 768" style="enable-background:new 0 0 1366 768;" xml:space="preserve">
<style type="text/css">
	.st0{fill:none;stroke:#BADDFA;stroke-width:11;stroke-linecap:square;stroke-linejoin:round;stroke-miterlimit:10;}
	.st1{fill:none;stroke:#64B4F5;stroke-width:11;stroke-linecap:square;stroke-linejoin:round;stroke-miterlimit:10;}
	.st2{fill:none;stroke:#2195F2;stroke-width:11;stroke-linecap:square;stroke-linejoin:round;stroke-miterlimit:10;}
	.st3{fill:none;stroke:#1976D1;stroke-width:11;stroke-linecap:square;stroke-linejoin:round;stroke-miterlimit:10;}
	.st4{fill:none;stroke:#0D47A0;stroke-width:11;stroke-miterlimit:10;}
	.st5{fill:#0D47A0;stroke:#0D47A0;stroke-width:13;stroke-miterlimit:10;}
	.st6{fill:#FFFFFF;stroke:#64B4F5;stroke-width:11;stroke-miterlimit:10;}
	.st7{fill:none;stroke:#BADDFA;stroke-width:11;stroke-linecap:round;stroke-linejoin:round;stroke-miterlimit:10;}
	.st8{fill:#BADDFA;}
	.st9{fill:none;}
	.st10{font-family:'SairaExtraCondensed-Regular';}
	.st11{font-size:44px;}
	.st12{fill:#0D47A0;}
	.st13{font-family:'OpenSans-Bold';}
	.st14{font-size:20px;}
	.st15{fill:#FFFFFF;stroke:#1976D1;stroke-width:11;stroke-miterlimit:10;}
	.st16{fill:none;stroke:#2195F2;stroke-width:11;stroke-linecap:round;stroke-linejoin:round;stroke-miterlimit:10;}
	.st17{fill:#2195F2;}
	.st18{fill:#FFFFFF;stroke:#0D47A0;stroke-width:11;stroke-miterlimit:10;}
	.st19{fill:none;stroke:#1976D1;stroke-width:11;stroke-linecap:round;stroke-linejoin:round;stroke-miterlimit:10;}
	.st20{fill:#1976D1;}
	.st21{fill:#FFFFFF;stroke:#2195F2;stroke-width:11;stroke-miterlimit:10;}
	.st22{fill:none;stroke:#64B4F5;stroke-width:11;stroke-linecap:round;stroke-linejoin:round;stroke-miterlimit:10;}
	.st23{fill:#64B4F5;}
	.st24{fill:#2F5FA3;}
</style>
<line class="st0" x1="9.5" y1="397.5" x2="104.5" y2="397.5"/>
<line class="st1" x1="276.5" y1="398.5" x2="400.5" y2="398.5"/>
<line class="st2" x1="582.5" y1="399.5" x2="700.5" y2="399.5"/>
<line class="st3" x1="881.5" y1="399.5" x2="1024.5" y2="399.5"/>
<line class="st4" x1="1194.5" y1="397.5" x2="1367.5" y2="397.5"/>
<ellipse class="st5" cx="1272" cy="360.5" rx="3.5" ry="3"/>
<ellipse class="st5" cx="1300" cy="360.5" rx="3.5" ry="3"/>
<ellipse class="st5" cx="1328" cy="360.5" rx="3.5" ry="3"/>
<circle class="st6" cx="200" cy="397" r="77"/>
<path class="st7" d="M104.8,397c0-52.9,42.4-95.7,94.7-95.7"/>
<line class="st7" x1="200" y1="300.8" x2="200" y2="224"/>
<circle class="st8" cx="200.5" cy="218.5" r="11"/>
<rect x="170.5" y="378.4" class="st9" width="103.5" height="48"/>
<text transform="matrix(1 0 0 1 170.5469 411.1318)" class="st10 st11">2015</text>
<rect x="71" y="116" class="st9" width="277" height="46"/>
<text transform="matrix(1 0 0 1 85.0957 131.2002)"><tspan x="0" y="0" class="st12 st13 st14">CENTRO ACADÊMICOS DE </tspan><tspan x="-6.6" y="24" class="st12 st13 st14">CIÊNCIA DA COMPUTAÇÃO</tspan></text>
<circle class="st15" cx="797" cy="400" r="77"/>
<line class="st16" x1="797.5" y1="303" x2="797.5" y2="226"/>
<path class="st16" d="M701,399c0-53.1,42.5-96,95-96"/>
<circle class="st17" cx="797.5" cy="214.5" r="11"/>
<rect x="770.5" y="381.4" class="st9" width="103.5" height="48"/>
<text transform="matrix(1 0 0 1 770.5469 414.1318)" class="st10 st11">2017</text>
<rect x="676" y="110" class="st9" width="244" height="46"/>
<text transform="matrix(1 0 0 1 710.1045 125.2002)"><tspan x="0" y="0" class="st12 st13 st14">BOLSA INICIAÇÃO </tspan><tspan x="33.3" y="24" class="st12 st13 st14">CIENTÍFICA</tspan></text>
<circle class="st18" cx="1121" cy="398" r="77"/>
<line class="st19" x1="1120.5" y1="572" x2="1120.5" y2="495"/>
<path class="st19" d="M1120.5,494.5c-53.1,0-96-42.5-96-95"/>
<circle class="st20" cx="1120.5" cy="582.5" r="11"/>
<rect x="1091.5" y="380.4" class="st9" width="103.5" height="48"/>
<text transform="matrix(1 0 0 1 1091.5469 413.1318)" class="st10 st11">2018</text>
<rect x="1010" y="618" class="st9" width="244" height="46"/>
<text transform="matrix(1 0 0 1 1062.4932 633.2002)" class="st12 st13 st14">COMP JÚNIOR</text>
<rect x="70" y="177" class="st9" width="286" height="24"/>
<text transform="matrix(1 0 0 1 96.5254 192.2002)" class="st12 st13 st14">Auxiliar Administrativo</text>
<circle class="st21" cx="495" cy="405" r="77"/>
<line class="st22" x1="496.5" y1="578" x2="496.5" y2="501"/>
<path class="st22" d="M496.5,500.5c-53.1,0-96-42.5-96-95"/>
<circle class="st23" cx="496.5" cy="589.5" r="11"/>
<rect x="463.5" y="386.4" class="st9" width="103.5" height="48"/>
<text transform="matrix(1 0 0 1 463.5469 419.1318)" class="st10 st11">2016</text>
<rect x="356" y="611" class="st9" width="277" height="46"/>
<text transform="matrix(1 0 0 1 370.0957 626.2002)"><tspan x="0" y="0" class="st12 st13 st14">CENTRO ACADÊMICOS DE </tspan><tspan x="-6.6" y="24" class="st12 st13 st14">CIÊNCIA DA COMPUTAÇÃO</tspan></text>
<rect x="352" y="666.4" class="st9" width="289" height="48.6"/>
<text transform="matrix(1 0 0 1 374.5908 681.5752)"><tspan x="0" y="0" class="st12 st13 st14">Coordenador de Eventos</tspan><tspan x="59.8" y="24" class="st12 st13 st14"> Acadêmicos</tspan></text>
<rect x="655" y="157.4" class="st9" width="298" height="44.3"/>
<text transform="matrix(1 0 0 1 715.0107 172.5752)"><tspan x="0" y="0" class="st24 st13 st14">Análise de Dados/</tspan><tspan x="25.8" y="24" class="st24 st13 st14">Sentimentos</tspan></text>
<rect x="989" y="644" class="st9" width="286" height="24"/>
<text transform="matrix(1 0 0 1 1094.1875 659.2002)" class="st12 st13 st14">Trainee</text>
</svg>
