<?xml version="1.0" encoding="utf-8"?>
<!-- Generator: Adobe Illustrator 22.1.0, SVG Export Plug-In . SVG Version: 6.00 Build 0)  -->
<svg version="1.1" id="Camada_1" xmlns="http://www.w3.org/2000/svg" xmlns:xlink="http://www.w3.org/1999/xlink" x="0px" y="0px"
	 viewBox="0 0 1366 768" style="enable-background:new 0 0 1366 768;" xml:space="preserve">
<style type="text/css">
	.st0{fill:#FFFFFF;stroke:#000000;stroke-miterlimit:10;}
	.st1{fill:none;}
	.st2{fill:#06308C;}
	.st3{font-family:'SairaExtraCondensed-SemiBold';}
	.st4{font-size:80px;}
	.st5{fill:#0D47A0;}
	.st6{font-family:'OpenSans-Bold';}
	.st7{font-size:20px;}
	.st8{fill:none;stroke:#BADDFA;stroke-width:11;stroke-linecap:square;stroke-linejoin:round;stroke-miterlimit:10;}
	.st9{fill:none;stroke:#64B4F5;stroke-width:11;stroke-linecap:square;stroke-linejoin:round;stroke-miterlimit:10;}
	.st10{fill:none;stroke:#2195F2;stroke-width:11;stroke-linecap:square;stroke-linejoin:round;stroke-miterlimit:10;}
	.st11{fill:none;stroke:#1976D1;stroke-width:11;stroke-linecap:square;stroke-linejoin:round;stroke-miterlimit:10;}
	.st12{fill:none;stroke:#0D47A0;stroke-width:11;stroke-miterlimit:10;}
	.st13{fill:#0D47A0;stroke:#0D47A0;stroke-width:13;stroke-miterlimit:10;}
	.st14{fill:#FFFFFF;stroke:#64B4F5;stroke-width:11;stroke-miterlimit:10;}
	.st15{fill:none;stroke:#BADDFA;stroke-width:11;stroke-linecap:round;stroke-linejoin:round;stroke-miterlimit:10;}
	.st16{fill:#BADDFA;}
	.st17{font-family:'SairaExtraCondensed-Regular';}
	.st18{font-size:44px;}
	.st19{fill:#FFFFFF;stroke:#1976D1;stroke-width:11;stroke-miterlimit:10;}
	.st20{fill:none;stroke:#2195F2;stroke-width:11;stroke-linecap:round;stroke-linejoin:round;stroke-miterlimit:10;}
	.st21{fill:#2195F2;}
	.st22{fill:#FFFFFF;stroke:#0D47A0;stroke-width:11;stroke-miterlimit:10;}
	.st23{fill:none;stroke:#1976D1;stroke-width:11;stroke-linecap:round;stroke-linejoin:round;stroke-miterlimit:10;}
	.st24{fill:#1976D1;}
	.st25{fill:#FFFFFF;stroke:#2195F2;stroke-width:11;stroke-miterlimit:10;}
	.st26{fill:none;stroke:#64B4F5;stroke-width:11;stroke-linecap:round;stroke-linejoin:round;stroke-miterlimit:10;}
	.st27{fill:#64B4F5;}
	.st28{fill:#2F5FA3;}
</style>
<rect x="0.5" y="0.5" class="st0" width="1366" height="766.5"/>
<rect x="84.8" y="52.3" class="st1" width="346.2" height="60.6"/>
<text transform="matrix(1 0 0 1 84.7859 111.7385)" class="st2 st3 st4">EXPERIÊNCIAS</text>
<rect x="64" y="136" class="st1" width="277" height="46"/>
<text transform="matrix(1 0 0 1 78.0957 151.2002)"><tspan x="0" y="0" class="st5 st6 st7">CENTRO ACADÊMICOS DE </tspan><tspan x="-6.6" y="24" class="st5 st6 st7">CIÊNCIA DA COMPUTAÇÃO</tspan></text>
<rect x="676" y="136" class="st1" width="244" height="46"/>
<text transform="matrix(1 0 0 1 710.1045 151.2002)"><tspan x="0" y="0" class="st5 st6 st7">BOLSA INICIAÇÃO </tspan><tspan x="33.3" y="24" class="st5 st6 st7">CIENTÍFICA</tspan></text>
<rect x="1010" y="644" class="st1" width="244" height="46"/>
<text transform="matrix(1 0 0 1 1062.4932 659.2002)" class="st5 st6 st7">COMP JÚNIOR</text>
<rect x="70" y="196" class="st1" width="286" height="24"/>
<text transform="matrix(1 0 0 1 96.5254 211.2002)" class="st5 st6 st7">Auxiliar Administrativo</text>
<g>
	<line class="st8" x1="9.5" y1="425.5" x2="104.5" y2="423.5"/>
	<line class="st9" x1="276.5" y1="424.5" x2="400.5" y2="424.5"/>
	<line class="st10" x1="582.5" y1="425.5" x2="700.5" y2="424.5"/>
	<line class="st11" x1="881.5" y1="425.5" x2="1024.5" y2="425.5"/>
	<line class="st12" x1="1194.5" y1="423.5" x2="1367.5" y2="423.5"/>
	<ellipse class="st13" cx="1272" cy="386.5" rx="3.5" ry="3"/>
	<ellipse class="st13" cx="1300" cy="386.5" rx="3.5" ry="3"/>
	<ellipse class="st13" cx="1328" cy="386.5" rx="3.5" ry="3"/>
	<circle class="st14" cx="200" cy="423" r="77"/>
	<path class="st15" d="M104.8,423c0-52.9,42.4-95.7,94.7-95.7"/>
	<line class="st15" x1="200" y1="326.8" x2="200" y2="250"/>
	<circle class="st16" cx="200.5" cy="244.5" r="11"/>
	<rect x="170.5" y="404.4" class="st1" width="103.5" height="48"/>
	<text transform="matrix(1 0 0 1 170.5469 437.1318)" class="st17 st18">2015</text>
	<circle class="st19" cx="797" cy="426" r="77"/>
	<line class="st20" x1="797.5" y1="329" x2="797.5" y2="252"/>
	<path class="st20" d="M701,425c0-53.1,42.5-96,95-96"/>
	<circle class="st21" cx="797.5" cy="240.5" r="11"/>
	<rect x="770.5" y="407.4" class="st1" width="103.5" height="48"/>
	<text transform="matrix(1 0 0 1 770.5469 440.1318)" class="st17 st18">2017</text>
	<circle class="st22" cx="1121" cy="424" r="77"/>
	<line class="st23" x1="1120.5" y1="598" x2="1120.5" y2="521"/>
	<path class="st23" d="M1120.5,520.5c-53.1,0-96-42.5-96-95"/>
	<circle class="st24" cx="1120.5" cy="608.5" r="11"/>
	<rect x="1091.5" y="406.4" class="st1" width="103.5" height="48"/>
	<text transform="matrix(1 0 0 1 1091.5469 439.1318)" class="st17 st18">2018</text>
	<circle class="st25" cx="495" cy="431" r="77"/>
	<line class="st26" x1="496.5" y1="604" x2="496.5" y2="527"/>
	<path class="st26" d="M496.5,526.5c-53.1,0-96-42.5-96-95"/>
	<circle class="st27" cx="496.5" cy="615.5" r="11"/>
	<rect x="463.5" y="412.4" class="st1" width="103.5" height="48"/>
	<text transform="matrix(1 0 0 1 463.5469 445.1318)" class="st17 st18">2016</text>
</g>
<rect x="356" y="637" class="st1" width="277" height="46"/>
<text transform="matrix(1 0 0 1 370.0957 652.2002)"><tspan x="0" y="0" class="st5 st6 st7">CENTRO ACADÊMICOS DE </tspan><tspan x="-6.6" y="24" class="st5 st6 st7">CIÊNCIA DA COMPUTAÇÃO</tspan></text>
<rect x="352" y="692.4" class="st1" width="289" height="48.6"/>
<text transform="matrix(1 0 0 1 374.5908 707.5752)"><tspan x="0" y="0" class="st5 st6 st7">Coordenador de Eventos</tspan><tspan x="59.8" y="24" class="st5 st6 st7"> Acadêmicos</tspan></text>
<rect x="655" y="183.4" class="st1" width="298" height="44.3"/>
<text transform="matrix(1 0 0 1 715.0107 198.5752)"><tspan x="0" y="0" class="st28 st6 st7">Análise de Dados/</tspan><tspan x="25.8" y="24" class="st28 st6 st7">Sentimentos</tspan></text>
<rect x="989" y="670" class="st1" width="286" height="24"/>
<text transform="matrix(1 0 0 1 1094.1875 685.2002)" class="st5 st6 st7">Trainee</text>
</svg>
