<?xml version="1.0" encoding="utf-8"?>
<!-- Generator: Adobe Illustrator 22.1.0, SVG Export Plug-In . SVG Version: 6.00 Build 0)  -->
<svg version="1.1" id="Camada_1" xmlns="http://www.w3.org/2000/svg" xmlns:xlink="http://www.w3.org/1999/xlink" x="0px" y="0px"
	 viewBox="0 0 812.4 1160" style="enable-background:new 0 0 812.4 1160;" xml:space="preserve">
<style type="text/css">
	.st0{fill:none;stroke:#BADDFA;stroke-width:11;stroke-linecap:square;stroke-linejoin:round;stroke-miterlimit:10;}
	.st1{fill:none;stroke:#64B4F5;stroke-width:11;stroke-linecap:square;stroke-linejoin:round;stroke-miterlimit:10;}
	.st2{fill:none;stroke:#2195F2;stroke-width:11;stroke-linecap:square;stroke-linejoin:round;stroke-miterlimit:10;}
	.st3{fill:none;stroke:#1976D1;stroke-width:11;stroke-linecap:square;stroke-linejoin:round;stroke-miterlimit:10;}
	.st4{fill:none;stroke:#0D47A0;stroke-width:11;stroke-miterlimit:10;}
	.st5{fill:#0D47A0;stroke:#0D47A0;stroke-width:13;stroke-miterlimit:10;}
	.st6{fill:#FFFFFF;stroke:#64B4F5;stroke-width:11;stroke-miterlimit:10;}
	.st7{fill:none;stroke:#BADDFA;stroke-width:11;stroke-linecap:round;stroke-linejoin:round;stroke-miterlimit:10;}
	.st8{fill:#BADDFA;}
	.st9{fill:#FFFFFF;stroke:#1976D1;stroke-width:11;stroke-miterlimit:10;}
	.st10{fill:none;stroke:#2195F2;stroke-width:11;stroke-linecap:round;stroke-linejoin:round;stroke-miterlimit:10;}
	.st11{fill:#2195F2;}
	.st12{fill:#FFFFFF;stroke:#0D47A0;stroke-width:11;stroke-miterlimit:10;}
	.st13{fill:none;stroke:#1976D1;stroke-width:11;stroke-linecap:round;stroke-linejoin:round;stroke-miterlimit:10;}
	.st14{fill:#1976D1;}
	.st15{fill:#FFFFFF;stroke:#2195F2;stroke-width:11;stroke-miterlimit:10;}
	.st16{fill:none;stroke:#64B4F5;stroke-width:11;stroke-linecap:round;stroke-linejoin:round;stroke-miterlimit:10;}
	.st17{fill:#64B4F5;}
	.st18{fill:none;}
	.st19{fill:#0D47A0;}
	.st20{font-family:'OpenSans-Bold';}
	.st21{font-size:13.9743px;}
	.st22{font-size:15.6279px;}
	.st23{font-family:'SairaExtraCondensed-SemiBold';}
	.st24{font-size:62.5118px;}
	.st25{font-family:'SairaExtraCondensed-Regular';}
	.st26{font-size:44px;}
	.st27{font-size:14.6539px;}
	.st28{font-size:13.2075px;}
	.st29{enable-background:new    ;}
	.st30{font-size:14.5241px;}
	.st31{fill:#2F5FA3;}
	.st32{font-size:12.8371px;}
	.st33{font-size:15.2128px;}
	.st34{font-size:14.6999px;}
</style>
<line class="st0" x1="391.9" y1="8.5" x2="391.9" y2="103.5"/>
<line class="st1" x1="391.8" y1="283.1" x2="391.9" y2="362.5"/>
<line class="st2" x1="391.3" y1="539.1" x2="391.9" y2="638.5"/>
<line class="st3" x1="392.1" y1="803.1" x2="392.1" y2="891.5"/>
<line class="st4" x1="392.5" y1="1071" x2="392.5" y2="1159.5"/>
<ellipse transform="matrix(0.9999 -1.511162e-02 1.511162e-02 0.9999 -16.4371 6.5303)" class="st5" cx="423.9" cy="1090.9" rx="3" ry="3.5"/>
<ellipse transform="matrix(0.9999 -1.511162e-02 1.511162e-02 0.9999 -16.8602 6.5395)" class="st5" cx="424.3" cy="1118.9" rx="3" ry="3.5"/>
<ellipse transform="matrix(0.9999 -1.511162e-02 1.511162e-02 0.9999 -17.2833 6.5488)" class="st5" cx="424.7" cy="1146.9" rx="3" ry="3.5"/>
<circle class="st6" cx="391.9" cy="203.5" r="77"/>
<path class="st7" d="M391.7,110.4c52.9-0.8,96.4,40.9,97.1,93.3"/>
<line class="st7" x1="489.4" y1="204.1" x2="565.9" y2="204.1"/>
<circle class="st8" cx="564.7" cy="203.4" r="11"/>
<circle class="st9" cx="392.9" cy="733.5" r="77"/>
<line class="st10" x1="490.2" y1="732.6" x2="566.9" y2="732.6"/>
<circle class="st11" cx="574.4" cy="732" r="11"/>
<circle class="st12" cx="393.9" cy="989.5" r="77"/>
<line class="st13" x1="217.9" y1="986.5" x2="294.9" y2="986.5"/>
<circle class="st14" cx="206.4" cy="985" r="11"/>
<circle class="st15" cx="390.9" cy="462.5" r="77"/>
<line class="st16" x1="218.9" y1="462.6" x2="295.7" y2="462.6"/>
<circle class="st17" cx="206.2" cy="464" r="11"/>
<rect x="454.4" y="96" class="st18" width="358" height="155.8"/>
<text transform="matrix(1 0 0 1 539.429 184.0156)" class="st19 st20 st21">CENTRO ACADÊMICOS DE CIÊNCIA </text>
<text transform="matrix(1 0 0 1 594.348 200.7847)" class="st19 st20 st21">DA COMPUTAÇÃO</text>
<text transform="matrix(1 0 0 1 570.3893 230)" class="st19 st20 st22">Auxiliar Administrativo</text>
<text transform="matrix(1 0 0 1 752.3766 230)" class="st23 st24"> </text>
<rect x="361.4" y="185" class="st18" width="122" height="50"/>
<text transform="matrix(1 0 0 1 361.3888 217.6919)" class="st25 st26">2015</text>
<text transform="matrix(1 0 0 1 10.5532 431.2078)" class="st19 st20 st27">CENTRO ACADÊMICOS DE </text>
<text transform="matrix(1 0 0 1 5.7178 448.7922)" class="st19 st20 st27">CIÊNCIA DA COMPUTAÇÃO</text>
<rect x="41.4" y="400" class="st18" width="244" height="88"/>
<text transform="matrix(1 0 0 1 21.6434 467.0754)" class="st19 st20 st28">Coordenador de Eventos</text>
<text transform="matrix(1 0 0 1 61.1341 482.9246)" class="st19 st20 st28"> Acadêmicos</text>
<rect x="478.4" y="638" class="st18" width="320" height="88"/>
<text transform="matrix(1 0 0 1 583.2425 708.8989)" class="st29"><tspan x="0" y="0" class="st19 st20 st30">BOLSA INICIAÇÃO </tspan><tspan x="26.1" y="17.4" class="st19 st20 st30">CIENTÍFICA</tspan></text>
<text transform="matrix(1 0 0 1 594.3475 748.6914)" class="st31 st20 st32">Análise de Dados/</text>
<text transform="matrix(1 0 0 1 610.907 764.0957)" class="st31 st20 st32">Sentimentos</text>
<rect x="63.4" y="918" class="st18" width="264" height="68"/>
<text transform="matrix(1 0 0 1 86.8839 974)" class="st19 st20 st33">COMP JÚNIOR</text>
<rect x="112.4" y="948" class="st18" width="166" height="76"/>
<text transform="matrix(1 0 0 1 112.3888 996)" class="st19 st20 st34">Trainee</text>
<path class="st16" d="M295.9,460.9c0-52.9,42.4-95.7,94.7-95.7"/>
<path class="st10" d="M392.4,637.7c52.9,0,95.7,42.4,95.7,94.7"/>
<path class="st13" d="M295.9,986.9c0-52.9,42.4-95.7,94.7-95.7"/>
<rect x="361.4" y="971" class="st18" width="122" height="50"/>
<text transform="matrix(1 0 0 1 361.3888 1003.6919)" class="st25 st26">2018</text>
<rect x="361.4" y="716" class="st18" width="122" height="50"/>
<text transform="matrix(1 0 0 1 361.3888 748.6919)" class="st25 st26">2017</text>
<rect x="361.4" y="450" class="st18" width="122" height="50"/>
<text transform="matrix(1 0 0 1 361.3888 482.6919)" class="st25 st26">2016</text>
</svg>
